<?xml version="1.0" standalone="no"?>
<!DOCTYPE svg PUBLIC "-//W3C//DTD SVG 20010904//EN"
 "http://www.w3.org/TR/2001/REC-SVG-20010904/DTD/svg10.dtd">
<svg version="1.0" xmlns="http://www.w3.org/2000/svg"
 width="513.000000pt" height="513.000000pt" viewBox="0 0 513.000000 513.000000"
 preserveAspectRatio="xMidYMid meet">
<metadata>
Created by potrace 1.14, written by Peter Selinger 2001-2017
</metadata>
<g transform="translate(0.000000,513.000000) scale(0.100000,-0.100000)"
fill="#000000" stroke="none">
<path d="M2475 4946 c-55 -40 -125 -90 -156 -112 -31 -21 -98 -68 -148 -104
-50 -36 -183 -129 -294 -208 -111 -79 -211 -150 -222 -158 -49 -35 -867 -615
-1125 -798 -157 -110 -289 -204 -295 -209 -37 -30 -221 -157 -228 -157 -9 0
-8 -5 38 -150 18 -58 56 -179 85 -270 28 -91 58 -183 65 -205 14 -39 30 -90
155 -485 33 -107 65 -206 70 -220 5 -14 36 -113 70 -220 55 -176 101 -319 220
-695 21 -66 61 -190 88 -275 77 -240 140 -442 148 -473 3 -15 10 -29 14 -32 5
-3 120 -7 257 -10 136 -3 374 -7 528 -10 154 -3 395 -7 535 -10 140 -3 381 -7
535 -10 154 -3 393 -7 530 -10 138 -2 371 -7 519 -10 240 -5 268 -4 263 10 -4
8 16 81 43 163 27 81 227 678 445 1327 471 1403 436 1298 439 1310 2 6 6 17 9
25 4 8 20 56 36 105 l30 90 -23 20 c-12 11 -66 52 -120 90 -53 39 -138 101
-189 139 -50 37 -180 132 -287 210 -107 79 -289 212 -405 297 -115 85 -293
215 -394 289 -185 136 -501 367 -910 668 -122 89 -223 162 -224 161 -1 0 -47
-33 -102 -73z"/>
</g>
</svg>
